<?xml version="1.0" encoding="utf-8"?>
<!-- Generator: Adobe Illustrator 16.0.0, SVG Export Plug-In . SVG Version: 6.00 Build 0)  -->
<!DOCTYPE svg PUBLIC "-//W3C//DTD SVG 1.1//EN" "http://www.w3.org/Graphics/SVG/1.1/DTD/svg11.dtd">
<svg version="1.1" id="Layer_1" xmlns="http://www.w3.org/2000/svg" xmlns:xlink="http://www.w3.org/1999/xlink" x="0px" y="0px"
	 width="32px" height="32px" viewBox="0 0 32 32" enable-background="new 0 0 32 32" xml:space="preserve">
<g id="icomoon-ignore">
</g>
<path d="M24.375,13h-0.5V7c0-3.308-2.691-6-6-6h-4c-3.308,0-6,2.692-6,6v6h-0.5c-0.825,0-1.5,0.675-1.5,1.5v15
	c0,0.825,0.675,1.5,1.5,1.5h17c0.825,0,1.5-0.675,1.5-1.5v-15C25.875,13.675,25.2,13,24.375,13z M17.875,27h-4l0.87-4.35
	c-0.525-0.36-0.87-0.965-0.87-1.65c0-1.105,0.895-2,2-2c1.105,0,2,0.895,2,2c0,0.686-0.346,1.29-0.87,1.65L17.875,27z M19.875,13h-8
	V7c0-1.103,0.897-2,2-2h4c1.104,0,2,0.897,2,2V13z"/>
</svg>
